<mxfile host="app.diagrams.net" agent="Mozilla/5.0 (Windows NT 10.0; Win64; x64) AppleWebKit/537.36 (KHTML, like Gecko) Chrome/133.0.0.0 Safari/537.36 Edg/133.0.0.0" version="26.0.11">
  <diagram name="PÃ¡gina-1" id="Y-CelW-G0XhJwjw51LjB">
    <mxGraphModel dx="779" dy="474" grid="1" gridSize="10" guides="1" tooltips="1" connect="1" arrows="1" fold="1" page="1" pageScale="1" pageWidth="827" pageHeight="1169" math="0" shadow="0">
      <root>
        <mxCell id="0" />
        <mxCell id="1" parent="0" />
        <mxCell id="pTlINT2biftP0xdSOeVw-1" value="Contato" style="swimlane;fontStyle=1;align=center;verticalAlign=top;childLayout=stackLayout;horizontal=1;startSize=26;horizontalStack=0;resizeParent=1;resizeParentMax=0;resizeLast=0;collapsible=1;marginBottom=0;whiteSpace=wrap;html=1;" parent="1" vertex="1">
          <mxGeometry x="330" y="360" width="320" height="170" as="geometry" />
        </mxCell>
        <mxCell id="pTlINT2biftP0xdSOeVw-2" value="- id:int&lt;div&gt;- nome:String&lt;/div&gt;&lt;div&gt;- email:String&lt;/div&gt;&lt;div&gt;- senha:String&lt;/div&gt;" style="text;strokeColor=none;fillColor=none;align=left;verticalAlign=top;spacingLeft=4;spacingRight=4;overflow=hidden;rotatable=0;points=[[0,0.5],[1,0.5]];portConstraint=eastwest;whiteSpace=wrap;html=1;" parent="pTlINT2biftP0xdSOeVw-1" vertex="1">
          <mxGeometry y="26" width="320" height="64" as="geometry" />
        </mxCell>
        <mxCell id="pTlINT2biftP0xdSOeVw-3" value="" style="line;strokeWidth=1;fillColor=none;align=left;verticalAlign=middle;spacingTop=-1;spacingLeft=3;spacingRight=3;rotatable=0;labelPosition=right;points=[];portConstraint=eastwest;strokeColor=inherit;" parent="pTlINT2biftP0xdSOeVw-1" vertex="1">
          <mxGeometry y="90" width="320" height="8" as="geometry" />
        </mxCell>
        <mxCell id="pTlINT2biftP0xdSOeVw-4" value="+ chkUser(email:String):String&lt;div&gt;+ chkPass(email:String, senha:String):String&lt;/div&gt;&lt;div&gt;+ insertUser(email, senha, nome):String&lt;/div&gt;&lt;div&gt;+ construct():boolean&lt;/div&gt;" style="text;align=left;verticalAlign=top;spacingLeft=4;spacingRight=4;overflow=hidden;rotatable=0;points=[[0,0.5],[1,0.5]];portConstraint=eastwest;whiteSpace=wrap;html=1;strokeWidth=1;" parent="pTlINT2biftP0xdSOeVw-1" vertex="1">
          <mxGeometry y="98" width="320" height="72" as="geometry" />
        </mxCell>
      </root>
    </mxGraphModel>
  </diagram>
</mxfile>
